<svg xmlns="http://www.w3.org/2000/svg" viewBox="0 0 1703.63 291"><defs><style>.cls-1{fill:#faa31a;}.cls-1,.cls-2{fill-rule:evenodd;}.cls-2,.cls-3{fill:#141e29;}.cls-4{fill:#231f20;}</style></defs><title>Asset 1</title><g id="Layer_2" data-name="Layer 2"><g id="Layer_1-2" data-name="Layer 1"><path class="cls-1" d="M0,237c2.15-1.84,3.49-3,4.09-3.57q11.07-10,16.25-19.44a66.87,66.87,0,0,0,7.09-22.58L48,52.87A84.16,84.16,0,0,0,49.3,38c0-8.43-2.41-17.49-7.16-27.16C41.06,8.9,40.37,7.63,40,7H160.75a29.51,29.51,0,0,1,4.95.32q37.64,2.47,56.45,16T241,60.17q0,13.45-6.54,30.76a77.66,77.66,0,0,1-17.15,26.68,79.82,79.82,0,0,1-27.09,17.93,88.7,88.7,0,0,1-34,6.41q-26.53,0-41.26-8a51.85,51.85,0,0,0,5.94.61q17.81,0,33.57-16.75a49.15,49.15,0,0,0,10.14-14.5A58.23,58.23,0,0,0,169,85.37a70.7,70.7,0,0,0,.61-10.54q-.45-16.42-8.92-23.88c-5.64-4.95-15-7.45-27.85-7.45-1.85,0-4.73.22-8.63.61l-4.22.31-2.9.28L95.53,191.38a101.52,101.52,0,0,0-.88,12.69,52.37,52.37,0,0,0,2.63,15.16,51.67,51.67,0,0,0,8.19,14.21c.47.64.92,1.16,1.34,1.67a15,15,0,0,1,1.55,1.9Z"/><path class="cls-1" d="M317.29,237H222.93a18.24,18.24,0,0,0,4.79-3.37c5.53-4.26,9.31-8,11.3-11.4s3.64-8.43,5-15.33c.37-1.43.72-2.86,1-4.22l12.23-77.28c1.35-9.27,2-15.62,2-19q0-8.44-2.83-13.51c-1.88-3.42-5.13-6.66-9.67-9.76,6.28.47,13.33.7,21.09.7a182.89,182.89,0,0,0,29.34-2.4,175.12,175.12,0,0,0,29.17-7.34l-3.63,23.29a50.08,50.08,0,0,1,19.41-15.06A62.75,62.75,0,0,1,368,77a71.63,71.63,0,0,1,11.91,1c.71.13,1.28.22,1.76.34a19.47,19.47,0,0,1,1.89.54l-7.72,49.46a35,35,0,0,0-7.56-5.09c-6.92-3.82-13.64-5.7-20.24-5.7q-12.5,0-22.56,9.21a37.7,37.7,0,0,0-8.23,11.8c-1.59,3.89-3,9.79-4.26,17.77l-7.29,46.23-1.47,9.62a30.23,30.23,0,0,0,8.3,21.4c2.5,2.07,3.92,3.18,4.22,3.4"/><path class="cls-1" d="M467.29,237H374.5a18.75,18.75,0,0,0,4.84-3.34c9-7.09,14.08-14.22,15.15-21.42l14.7-92.77c.81-6.41,1.17-10.48,1.17-12.24a28.25,28.25,0,0,0-1.73-10.63,29.15,29.15,0,0,0-5.69-8.44c-2.53-2.31-5.76-6.57-8.11-7.86,6.51.79,14,3,22.64,3.64a139.87,139.87,0,0,0,30.3-1c12-1.73,19.61-3.39,30-8.91L456.11,212.26a37.13,37.13,0,0,0,1.69,12.1,24.77,24.77,0,0,0,5.72,9,26,26,0,0,0,2.69,2.42c.82.63,1.25,1,1.25,1.22M428.19,59.91a33.52,33.52,0,0,1-7.56-21.53q.47-14.57,11-23.91A31,31,0,0,1,453.49,5.9q13.9,0,24.1,11.08a31.78,31.78,0,0,1,8.56,22q0,15-11.61,25.33-10,8.16-21.05,8.15-15.13,0-25.29-12.53"/><path class="cls-1" d="M631.76,82.12c1,.28,2.34.71,4,1.32s3.19,1.13,4.56,1.58l-4.81,31.43c-6.46-5.65-14.9-9.6-25.31-11.94A79.22,79.22,0,0,0,593,102.59q-18.63,0-31,10T544.5,141.65a54.53,54.53,0,0,0-1.67,13,40.24,40.24,0,0,0,11.33,28.61q11.33,12,31.42,15.44a50.13,50.13,0,0,0,8.82.57q12.06,0,30.29-4.6a188.36,188.36,0,0,0,30-10.09l-36,44.1c-3.7.8-7.58,1.65-11.63,2.48A215.8,215.8,0,0,1,564,236a159.1,159.1,0,0,1-20.21-1.13,69.85,69.85,0,0,1-31.64-11.32,64.86,64.86,0,0,1-21.41-23.53,66.3,66.3,0,0,1-7.6-31.71,84.78,84.78,0,0,1,6-30.6A91.76,91.76,0,0,1,511.05,105a100.65,100.65,0,0,1,34.72-21.72,120.92,120.92,0,0,1,43.2-7.6,143.7,143.7,0,0,1,42.79,6.49"/><path class="cls-1" d="M839.87,158.45a54.36,54.36,0,0,1-2,10.55H721.62c.28,6.66,4.17,13.59,11.69,20.89q10.69,10.68,30.2,10.66,12.92,0,33.64-4.33,22.14-4.65,35.92-11.63L799,229l-6.8.91q-27.13,5.44-41.63,5.86-22.38,0-39-4.39c-11.07-2.92-20.26-7.27-27.49-12.94a53.6,53.6,0,0,1-16.3-21.25c-3.6-8.44-5.56-18.3-5.82-29.53A79.4,79.4,0,0,1,668,137.92a96.78,96.78,0,0,1,17.82-28.27q6.23-6.67,12-11.73,28.61-22.29,68-22.69a125.67,125.67,0,0,1,14.33.88q30.44,3.33,45.79,19.27t15.36,44.3a162.4,162.4,0,0,1-1.36,18.78M724.29,139h61.9a34.26,34.26,0,0,0,.57-5.21q0-14.74-6.63-22.35c-4.41-5.06-10.41-7.61-17.91-7.61a35.16,35.16,0,0,0-7.12.57q-15.47,2.82-25.52,19.53A55,55,0,0,0,724.14,139"/><path class="cls-2" d="M992.36,237H829L936.91,113.07q-15.28,0-40.62,3.92c-12.52,2-23,4.34-31.33,7.17l-2,.87L860,126.21,888.84,83H1034.9l-107,123.41,2.73.3,4.82.29h11.46c3.58,0,7.59,0,12.06-.08s7.74-.1,9.91-.21q21.25-1.59,32.59-4.48a85.86,85.86,0,0,0,21.24-8.43Z"/><path class="cls-2" d="M1164.38,77.47q20.84,1.27,36.72,3.83A192.18,192.18,0,0,1,1229.77,88l-.82.85-2,1.55a37.81,37.81,0,0,0-10.34,10.91,43,43,0,0,0-5,14l-10.66,68.3c0,4.9.91,8.25,2.84,10.06s5.43,2.68,10.5,2.68q2.12,0,8.89-.57a6.55,6.55,0,0,0,2-.28L1194,232.72a88.65,88.65,0,0,1-24.21,4.37c-6.76,0-12.57-1.26-17.37-3.75a26.46,26.46,0,0,1-11.07-10.24,29.53,29.53,0,0,1-3.79-15,50.76,50.76,0,0,1,.56-6.09l13.78-87.13c-.55-.18-1.15-.44-1.82-.7a13.78,13.78,0,0,0-1.54-.59,53.79,53.79,0,0,0-15.83-2.26,39.57,39.57,0,0,0-19.55,5q-8.91,4.94-15.78,15a49.7,49.7,0,0,0-6.5,15.38,99.7,99.7,0,0,0-2.61,20.91v7.63c.27,7.83,3,14.29,8,19.34a25.38,25.38,0,0,0,18.53,7.56,31,31,0,0,0,9.8-1.42,22,22,0,0,0,5.48-2l2.51-1.25,2-1.14-30.4,35.88-2,.57-3.49.85a84,84,0,0,1-11.46,1.8c-1.88.2-4.64.28-8.3.28q-16.76,0-29.71-7a48,48,0,0,1-19.86-19.78q-6.92-12.8-6.91-29.46a97.08,97.08,0,0,1,2.23-19.09A109.78,109.78,0,0,1,1039,125.17a90.35,90.35,0,0,1,24.76-25.76q15-10.5,36.24-16.23T1148.36,77c7,0,12.39.15,16,.44"/><rect class="cls-3" x="1311.44" width="5.7" height="291"/><path class="cls-4" d="M1429.32,69.37h9.09V184.66c0,51.68,25,67,52.25,67,27.83,0,53.39-15.33,53.39-67V69.37h8.52V186.93c0,57.93-31.8,73.26-61.91,73.26s-61.34-15.33-61.34-73.26Z"/><path class="cls-4" d="M1637.18,159.67l-52.82-90.3H1594L1627,127.3c5.11,8.52,9.09,14.77,15.33,25h1.14c5.68-10.22,9.09-16.47,14.2-25l32.94-57.93h9.09l-52.82,90.87,56.79,96.55H1694l-34.64-60.2c-5.11-9.09-10.79-18.17-17.61-29.53h-1.14c-6.25,11.36-11.36,20.45-16.47,29.53l-34.64,60.2h-9.09Z"/></g></g></svg>